<svg xmlns="http://www.w3.org/2000/svg" width="16" height="16" viewBox="0 0 30.048 30.048">
  <path fill="#a0c4e6" d="M18.566.427C17.426.153 16.246 0 15.023 0 13.8 0 12.617.152 11.48.428v3.97h7.086V.428z"/>
  <path fill="#ef3e42" d="M11.48 11.48h7.086v7.088H11.48z"/>
  <path fill="#9acd6e" d="M11.48 18.567h7.086v7.087H11.48z"/>
  <path fill="#429ed6" d="M11.48 29.62c1.137.275 2.32.428 3.543.428 1.223 0 2.404-.15 3.543-.42v-3.97H11.48v3.97z"/>
  <path fill="#cae3b2" d="M11.48 4.394h7.086v7.087H11.48zM4.393 11.48h7.087v7.088H4.393z"/>
  <path fill="#7ac143" d="M4.393 18.567h7.087v7.087H4.393z"/>
  <path fill="#007bc6" d="M4.393 25.654c1.92 1.92 4.36 3.307 7.087 3.967v-3.96H4.393z"/>
  <path fill="#9acd6e" d="M4.393 4.394h7.087v7.087H4.393z"/>
  <path fill="#429ed6" d="M11.48.427c-2.727.66-5.168 2.048-7.087 3.967h7.087V.427z"/>
  <path fill="#007bc6" d="M4.393 25.654v-7.087H.426c.662 2.725 2.048 5.17 3.967 7.087z"/>
  <path fill="#429ed6" d="M4.393 4.394c-1.92 1.92-3.305 4.36-3.966 7.087h3.97V4.4z"/>
  <path fill="#9acd6e" d="M18.566 11.48h7.086v7.088h-7.086z"/>
  <path fill="#7ac143" d="M18.566 18.567h7.086v7.087h-7.086z"/>
  <path fill="#007bc6" d="M25.653 25.654h-7.087v3.967c2.725-.66 5.17-2.04 7.087-3.96z"/>
  <path fill="#7ac143" d="M18.566 4.394h7.086v7.087h-7.086z"/>
  <path fill="#007bc6" d="M18.566.427v3.967h7.086c-1.917-1.92-4.36-3.307-7.086-3.966zm7.087 25.227c1.92-1.918 3.305-4.36 3.966-7.087h-3.97v7.087zm0-21.26v7.087h3.966c-.66-2.72-2.05-5.16-3.97-7.08z"/>
  <path fill="#a0c4e6" d="M.426 11.48C.152 12.62 0 13.8 0 15.025c0 1.223.152 2.405.427 3.543h3.97V11.48H.427z"/>
  <path fill="#429ed6" d="M29.62 18.567c.274-1.138.427-2.32.427-3.543 0-1.223-.15-2.403-.42-3.543h-3.97v7.09h3.97z"/>
</svg>